<?xml version="1.0" encoding="UTF-8"?>
<svg xmlns="http://www.w3.org/2000/svg" xmlns:xlink="http://www.w3.org/1999/xlink" width="63pt" height="11pt" viewBox="0 0 63 11" version="1.1">
<g id="surface1">
<path fill="FF0000" style=" stroke:none;fill-rule:nonzero;fill:rgb(6.27451%,6.27451%,6.27451%);fill-opacity:1;" d="M 4.476562 2.574219 C 5.527344 2.574219 6.296875 2.789062 6.792969 3.214844 C 7.292969 3.640625 7.542969 4.199219 7.542969 4.890625 C 7.542969 5.125 7.515625 5.386719 7.453125 5.671875 C 7.304688 6.308594 7.03125 6.867188 6.628906 7.347656 C 6.230469 7.824219 5.734375 8.191406 5.148438 8.457031 C 4.570312 8.710938 3.941406 8.839844 3.261719 8.839844 C 2.191406 8.839844 1.394531 8.625 0.878906 8.199219 C 0.371094 7.765625 0.117188 7.191406 0.117188 6.476562 C 0.117188 6.234375 0.148438 5.96875 0.207031 5.671875 C 0.355469 5.066406 0.632812 4.53125 1.042969 4.066406 C 1.457031 3.589844 1.964844 3.226562 2.558594 2.96875 C 3.160156 2.707031 3.800781 2.574219 4.476562 2.574219 Z M 4.445312 3.609375 C 4.28125 3.609375 4.109375 3.757812 3.921875 4.054688 C 3.746094 4.339844 3.53125 4.886719 3.285156 5.695312 C 3.039062 6.503906 2.914062 7.070312 2.914062 7.394531 C 2.914062 7.566406 2.941406 7.683594 2.996094 7.746094 C 3.050781 7.800781 3.125 7.828125 3.21875 7.828125 C 3.378906 7.84375 3.542969 7.703125 3.714844 7.40625 C 3.890625 7.113281 4.113281 6.539062 4.375 5.683594 C 4.613281 4.929688 4.734375 4.382812 4.734375 4.042969 C 4.734375 3.878906 4.707031 3.765625 4.652344 3.703125 C 4.605469 3.640625 4.535156 3.609375 4.445312 3.609375 Z M 4.445312 3.609375 "/>
<path style=" stroke:none;fill-rule:nonzero;fill:rgb(6.27451%,6.27451%,6.27451%);fill-opacity:1;" d="M 14.460938 7.128906 C 14.445312 7.160156 14.4375 7.207031 14.4375 7.269531 C 14.4375 7.320312 14.449219 7.363281 14.472656 7.394531 C 14.503906 7.425781 14.542969 7.441406 14.589844 7.441406 C 14.679688 7.441406 14.757812 7.402344 14.820312 7.324219 C 14.890625 7.242188 14.933594 7.199219 14.957031 7.199219 C 14.996094 7.199219 15.027344 7.226562 15.050781 7.28125 C 15.074219 7.324219 15.085938 7.382812 15.085938 7.453125 C 15.09375 7.679688 15.019531 7.902344 14.867188 8.117188 C 14.710938 8.328125 14.484375 8.503906 14.183594 8.640625 C 13.890625 8.773438 13.535156 8.839844 13.117188 8.839844 C 12.609375 8.839844 12.203125 8.722656 11.902344 8.492188 C 11.601562 8.25 11.449219 7.933594 11.441406 7.535156 C 11.441406 7.25 11.511719 6.925781 11.648438 6.570312 L 12.285156 4.890625 C 12.324219 4.789062 12.34375 4.710938 12.34375 4.648438 C 12.34375 4.546875 12.308594 4.46875 12.238281 4.414062 C 12.175781 4.351562 12.101562 4.320312 12.007812 4.320312 C 11.859375 4.320312 11.710938 4.390625 11.554688 4.53125 C 11.410156 4.664062 11.289062 4.878906 11.199219 5.183594 L 11.199219 5.160156 L 10.46875 7.523438 C 10.445312 7.617188 10.433594 7.699219 10.433594 7.769531 C 10.433594 7.871094 10.453125 7.949219 10.492188 8.011719 C 10.53125 8.066406 10.585938 8.121094 10.652344 8.175781 C 10.707031 8.230469 10.746094 8.277344 10.769531 8.316406 C 10.792969 8.347656 10.796875 8.390625 10.78125 8.445312 C 10.742188 8.546875 10.664062 8.617188 10.550781 8.664062 C 10.433594 8.710938 10.257812 8.734375 10.019531 8.734375 L 7.378906 8.734375 C 7.179688 8.734375 7.03125 8.703125 6.941406 8.640625 C 6.847656 8.570312 6.816406 8.484375 6.847656 8.375 C 6.878906 8.28125 6.957031 8.199219 7.089844 8.128906 C 7.207031 8.066406 7.300781 7.992188 7.378906 7.910156 C 7.457031 7.824219 7.523438 7.6875 7.574219 7.5 L 9.335938 1.6875 C 9.359375 1.617188 9.371094 1.5625 9.371094 1.515625 C 9.371094 1.429688 9.347656 1.359375 9.300781 1.304688 C 9.261719 1.25 9.207031 1.195312 9.136719 1.140625 C 9.0625 1.078125 9.003906 1.023438 8.964844 0.976562 C 8.933594 0.933594 8.929688 0.871094 8.953125 0.792969 C 9 0.613281 9.242188 0.457031 9.683594 0.324219 C 10.121094 0.195312 10.582031 0.128906 11.058594 0.128906 C 11.507812 0.128906 11.835938 0.214844 12.042969 0.382812 C 12.257812 0.554688 12.367188 0.789062 12.367188 1.082031 C 12.367188 1.253906 12.339844 1.421875 12.285156 1.585938 L 11.660156 3.632812 C 11.960938 3.238281 12.277344 2.960938 12.609375 2.808594 C 12.949219 2.652344 13.316406 2.574219 13.707031 2.574219 C 14.179688 2.574219 14.558594 2.71875 14.84375 3.003906 C 15.136719 3.292969 15.28125 3.664062 15.28125 4.125 C 15.28125 4.363281 15.242188 4.601562 15.167969 4.832031 Z M 14.460938 7.128906 "/>
<path style=" stroke:none;fill-rule:nonzero;fill:rgb(6.27451%,6.27451%,6.27451%);fill-opacity:1;" d="M 26.585938 7.128906 C 26.570312 7.160156 26.5625 7.207031 26.5625 7.269531 C 26.5625 7.320312 26.574219 7.363281 26.597656 7.394531 C 26.628906 7.425781 26.667969 7.441406 26.714844 7.441406 C 26.808594 7.441406 26.882812 7.402344 26.945312 7.324219 C 27.015625 7.242188 27.0625 7.199219 27.085938 7.199219 C 27.125 7.199219 27.15625 7.226562 27.175781 7.28125 C 27.199219 7.324219 27.210938 7.382812 27.210938 7.453125 C 27.21875 7.679688 27.148438 7.902344 26.992188 8.117188 C 26.839844 8.328125 26.609375 8.503906 26.308594 8.640625 C 26.015625 8.773438 25.660156 8.839844 25.246094 8.839844 C 24.734375 8.839844 24.332031 8.722656 24.03125 8.492188 C 23.730469 8.25 23.574219 7.933594 23.566406 7.535156 C 23.566406 7.25 23.636719 6.925781 23.777344 6.570312 L 24.410156 4.890625 C 24.449219 4.789062 24.46875 4.710938 24.46875 4.648438 C 24.46875 4.546875 24.433594 4.46875 24.367188 4.414062 C 24.304688 4.351562 24.226562 4.320312 24.132812 4.320312 C 24.003906 4.320312 23.867188 4.378906 23.730469 4.496094 C 23.589844 4.613281 23.46875 4.792969 23.359375 5.042969 L 22.722656 7.128906 C 22.707031 7.160156 22.699219 7.207031 22.699219 7.269531 C 22.699219 7.320312 22.710938 7.363281 22.734375 7.394531 C 22.765625 7.425781 22.804688 7.441406 22.851562 7.441406 C 22.941406 7.441406 23.019531 7.402344 23.082031 7.324219 C 23.152344 7.242188 23.195312 7.199219 23.21875 7.199219 C 23.257812 7.199219 23.289062 7.226562 23.3125 7.28125 C 23.335938 7.324219 23.347656 7.382812 23.347656 7.453125 C 23.355469 7.679688 23.28125 7.902344 23.128906 8.117188 C 22.972656 8.328125 22.746094 8.503906 22.445312 8.640625 C 22.152344 8.773438 21.796875 8.839844 21.378906 8.839844 C 20.871094 8.839844 20.464844 8.722656 20.164062 8.492188 C 19.863281 8.25 19.710938 7.933594 19.703125 7.535156 C 19.703125 7.25 19.773438 6.925781 19.910156 6.570312 L 20.546875 4.890625 C 20.585938 4.789062 20.605469 4.710938 20.605469 4.648438 C 20.605469 4.546875 20.570312 4.46875 20.5 4.414062 C 20.4375 4.351562 20.363281 4.320312 20.269531 4.320312 C 20.136719 4.320312 20.003906 4.378906 19.863281 4.496094 C 19.726562 4.605469 19.609375 4.78125 19.515625 5.03125 L 18.753906 7.523438 C 18.722656 7.609375 18.707031 7.691406 18.707031 7.769531 C 18.707031 7.863281 18.726562 7.9375 18.765625 8 C 18.804688 8.054688 18.859375 8.113281 18.925781 8.175781 C 18.980469 8.222656 19.019531 8.265625 19.042969 8.304688 C 19.066406 8.34375 19.070312 8.390625 19.054688 8.445312 C 19.023438 8.546875 18.949219 8.617188 18.835938 8.664062 C 18.71875 8.710938 18.539062 8.734375 18.289062 8.734375 L 15.652344 8.734375 C 15.453125 8.734375 15.308594 8.703125 15.222656 8.640625 C 15.132812 8.570312 15.097656 8.484375 15.121094 8.375 C 15.152344 8.28125 15.230469 8.199219 15.363281 8.128906 C 15.480469 8.066406 15.574219 7.992188 15.652344 7.910156 C 15.730469 7.824219 15.796875 7.6875 15.847656 7.5 L 16.878906 4.132812 C 16.894531 4.097656 16.902344 4.042969 16.902344 3.972656 C 16.902344 3.886719 16.882812 3.820312 16.84375 3.773438 C 16.8125 3.726562 16.757812 3.667969 16.683594 3.597656 C 16.605469 3.535156 16.550781 3.484375 16.519531 3.4375 C 16.488281 3.390625 16.484375 3.328125 16.507812 3.25 C 16.554688 3.070312 16.796875 2.914062 17.238281 2.785156 C 17.675781 2.644531 18.136719 2.574219 18.613281 2.574219 C 18.992188 2.574219 19.289062 2.679688 19.503906 2.886719 C 19.730469 3.097656 19.835938 3.386719 19.828125 3.75 C 20.144531 3.308594 20.476562 3 20.824219 2.832031 C 21.179688 2.660156 21.5625 2.574219 21.96875 2.574219 C 22.417969 2.574219 22.78125 2.707031 23.058594 2.96875 C 23.34375 3.226562 23.5 3.5625 23.53125 3.984375 C 23.863281 3.457031 24.21875 3.089844 24.597656 2.886719 C 24.976562 2.679688 25.386719 2.574219 25.835938 2.574219 C 26.304688 2.574219 26.683594 2.71875 26.96875 3.003906 C 27.261719 3.292969 27.410156 3.664062 27.410156 4.125 C 27.410156 4.363281 27.371094 4.601562 27.292969 4.832031 Z M 26.585938 7.128906 "/>
<path style=" stroke:none;fill-rule:nonzero;fill:rgb(6.27451%,6.27451%,6.27451%);fill-opacity:1;" d="M 33.726562 2.574219 C 34.066406 2.574219 34.335938 2.714844 34.539062 2.992188 C 34.746094 3.265625 34.851562 3.636719 34.851562 4.113281 C 34.851562 4.523438 34.777344 4.964844 34.628906 5.4375 C 34.34375 6.394531 33.886719 7.296875 33.253906 8.140625 C 32.628906 8.988281 31.90625 9.667969 31.089844 10.179688 C 30.28125 10.691406 29.46875 10.949219 28.660156 10.949219 C 28.257812 10.949219 27.910156 10.878906 27.617188 10.738281 C 27.332031 10.597656 27.117188 10.414062 26.96875 10.179688 C 26.816406 9.945312 26.738281 9.699219 26.738281 9.433594 C 26.738281 9.316406 26.757812 9.191406 26.796875 9.050781 C 26.867188 8.832031 26.980469 8.664062 27.144531 8.550781 C 27.304688 8.433594 27.5 8.375 27.722656 8.375 C 28.078125 8.375 28.367188 8.496094 28.589844 8.734375 C 28.820312 8.984375 28.96875 9.320312 29.03125 9.75 C 29.523438 9.726562 29.980469 9.511719 30.394531 9.109375 C 30.003906 9.039062 29.707031 8.90625 29.515625 8.710938 C 29.332031 8.511719 29.203125 8.199219 29.132812 7.78125 L 28.671875 4.925781 C 28.648438 4.777344 28.613281 4.679688 28.566406 4.625 C 28.527344 4.5625 28.472656 4.53125 28.40625 4.53125 C 28.351562 4.53125 28.285156 4.558594 28.207031 4.613281 C 28.140625 4.667969 28.089844 4.695312 28.058594 4.695312 C 27.996094 4.695312 27.964844 4.628906 27.964844 4.496094 C 27.964844 4.386719 27.984375 4.269531 28.023438 4.144531 C 28.164062 3.703125 28.421875 3.332031 28.796875 3.027344 C 29.175781 2.71875 29.617188 2.5625 30.117188 2.5625 C 30.613281 2.5625 30.972656 2.710938 31.207031 3.003906 C 31.445312 3.300781 31.597656 3.753906 31.667969 4.367188 L 32.015625 6.929688 C 32.039062 7.125 32.109375 7.222656 32.222656 7.222656 C 32.363281 7.222656 32.523438 7.097656 32.710938 6.847656 C 32.894531 6.59375 33.078125 6.230469 33.253906 5.765625 C 33.023438 5.554688 32.84375 5.316406 32.722656 5.042969 C 32.597656 4.769531 32.535156 4.480469 32.535156 4.167969 C 32.535156 3.929688 32.566406 3.710938 32.628906 3.515625 C 32.722656 3.207031 32.863281 2.972656 33.058594 2.820312 C 33.257812 2.65625 33.480469 2.574219 33.726562 2.574219 Z M 33.726562 2.574219 "/>
<path style=" stroke:none;fill-rule:nonzero;fill:rgb(6.27451%,6.27451%,6.27451%);fill-opacity:1;" d="M 39.492188 0.128906 C 40.316406 0.128906 40.933594 0.257812 41.34375 0.511719 C 41.761719 0.761719 41.96875 1.066406 41.96875 1.433594 C 41.96875 1.726562 41.84375 1.957031 41.597656 2.121094 C 41.359375 2.273438 41.042969 2.351562 40.648438 2.351562 C 40.285156 2.351562 40.003906 2.261719 39.804688 2.085938 C 39.605469 1.90625 39.503906 1.683594 39.503906 1.421875 C 39.503906 1.257812 39.554688 1.085938 39.652344 0.910156 C 39.421875 0.910156 39.230469 0.964844 39.074219 1.082031 C 38.921875 1.191406 38.800781 1.382812 38.714844 1.652344 C 38.671875 1.824219 38.648438 1.984375 38.648438 2.132812 C 38.648438 2.316406 38.679688 2.464844 38.738281 2.574219 C 38.808594 2.675781 38.90625 2.726562 39.027344 2.726562 L 39.710938 2.726562 C 40.113281 2.726562 40.3125 2.851562 40.3125 3.097656 C 40.3125 3.128906 40.304688 3.175781 40.289062 3.238281 C 40.246094 3.410156 40.148438 3.535156 40 3.621094 C 39.863281 3.707031 39.648438 3.75 39.363281 3.75 L 39.015625 3.75 L 37.871094 7.523438 C 37.847656 7.617188 37.835938 7.699219 37.835938 7.769531 C 37.835938 7.871094 37.855469 7.949219 37.894531 8.011719 C 37.933594 8.066406 37.988281 8.121094 38.058594 8.175781 C 38.109375 8.230469 38.148438 8.277344 38.171875 8.316406 C 38.195312 8.347656 38.199219 8.390625 38.183594 8.445312 C 38.144531 8.546875 38.070312 8.617188 37.953125 8.664062 C 37.835938 8.710938 37.660156 8.734375 37.421875 8.734375 L 34.78125 8.734375 C 34.582031 8.734375 34.433594 8.703125 34.34375 8.640625 C 34.25 8.570312 34.21875 8.484375 34.25 8.375 C 34.28125 8.28125 34.363281 8.199219 34.492188 8.128906 C 34.609375 8.066406 34.707031 7.992188 34.78125 7.910156 C 34.859375 7.824219 34.925781 7.6875 34.980469 7.5 L 35.882812 4.519531 C 35.921875 4.402344 35.941406 4.28125 35.941406 4.15625 C 35.941406 4.003906 35.90625 3.882812 35.835938 3.796875 C 35.773438 3.703125 35.675781 3.601562 35.546875 3.492188 C 35.460938 3.425781 35.394531 3.367188 35.347656 3.320312 C 35.3125 3.265625 35.292969 3.203125 35.292969 3.132812 C 35.285156 2.984375 35.335938 2.878906 35.441406 2.820312 C 35.558594 2.757812 35.773438 2.726562 36.089844 2.726562 L 36.378906 2.726562 C 36.324219 2.53125 36.296875 2.335938 36.296875 2.144531 C 36.296875 1.949219 36.332031 1.746094 36.402344 1.539062 C 36.550781 1.140625 36.863281 0.808594 37.339844 0.535156 C 37.824219 0.265625 38.542969 0.128906 39.492188 0.128906 Z M 39.492188 0.128906 "/>
<path style=" stroke:none;fill-rule:nonzero;fill:rgb(6.27451%,6.27451%,6.27451%);fill-opacity:1;" d="M 44.0625 2.574219 C 45.113281 2.574219 45.882812 2.789062 46.378906 3.214844 C 46.878906 3.640625 47.128906 4.199219 47.128906 4.890625 C 47.128906 5.125 47.097656 5.386719 47.035156 5.671875 C 46.890625 6.308594 46.617188 6.867188 46.214844 7.347656 C 45.8125 7.824219 45.320312 8.191406 44.734375 8.457031 C 44.15625 8.710938 43.527344 8.839844 42.847656 8.839844 C 41.777344 8.839844 40.980469 8.625 40.464844 8.199219 C 39.953125 7.765625 39.699219 7.191406 39.699219 6.476562 C 39.699219 6.234375 39.730469 5.96875 39.792969 5.671875 C 39.9375 5.066406 40.21875 4.53125 40.625 4.066406 C 41.042969 3.589844 41.546875 3.226562 42.140625 2.96875 C 42.742188 2.707031 43.382812 2.574219 44.0625 2.574219 Z M 44.027344 3.609375 C 43.867188 3.609375 43.691406 3.757812 43.507812 4.054688 C 43.328125 4.339844 43.117188 4.886719 42.871094 5.695312 C 42.625 6.503906 42.5 7.070312 42.5 7.394531 C 42.5 7.566406 42.527344 7.683594 42.582031 7.746094 C 42.636719 7.800781 42.707031 7.828125 42.800781 7.828125 C 42.964844 7.84375 43.128906 7.703125 43.300781 7.40625 C 43.476562 7.113281 43.695312 6.539062 43.957031 5.683594 C 44.199219 4.929688 44.316406 4.382812 44.316406 4.042969 C 44.316406 3.878906 44.289062 3.765625 44.234375 3.703125 C 44.191406 3.640625 44.121094 3.609375 44.027344 3.609375 Z M 44.027344 3.609375 "/>
<path style=" stroke:none;fill-rule:nonzero;fill:rgb(6.27451%,6.27451%,6.27451%);fill-opacity:1;" d="M 51.65625 2.574219 C 52.707031 2.574219 53.476562 2.789062 53.972656 3.214844 C 54.472656 3.640625 54.722656 4.199219 54.722656 4.890625 C 54.722656 5.125 54.691406 5.386719 54.628906 5.671875 C 54.484375 6.308594 54.210938 6.867188 53.808594 7.347656 C 53.40625 7.824219 52.914062 8.191406 52.328125 8.457031 C 51.75 8.710938 51.121094 8.839844 50.441406 8.839844 C 49.371094 8.839844 48.574219 8.625 48.058594 8.199219 C 47.546875 7.765625 47.292969 7.191406 47.292969 6.476562 C 47.292969 6.234375 47.324219 5.96875 47.386719 5.671875 C 47.53125 5.066406 47.8125 4.53125 48.21875 4.066406 C 48.636719 3.589844 49.140625 3.226562 49.734375 2.96875 C 50.335938 2.707031 50.976562 2.574219 51.65625 2.574219 Z M 51.621094 3.609375 C 51.460938 3.609375 51.285156 3.757812 51.101562 4.054688 C 50.921875 4.339844 50.710938 4.886719 50.464844 5.695312 C 50.21875 6.503906 50.09375 7.070312 50.09375 7.394531 C 50.09375 7.566406 50.121094 7.683594 50.175781 7.746094 C 50.230469 7.800781 50.300781 7.828125 50.394531 7.828125 C 50.558594 7.84375 50.722656 7.703125 50.894531 7.40625 C 51.070312 7.113281 51.289062 6.539062 51.550781 5.683594 C 51.792969 4.929688 51.910156 4.382812 51.910156 4.042969 C 51.910156 3.878906 51.882812 3.765625 51.828125 3.703125 C 51.785156 3.640625 51.714844 3.609375 51.621094 3.609375 Z M 51.621094 3.609375 "/>
<path style=" stroke:none;fill-rule:nonzero;fill:rgb(6.27451%,6.27451%,6.27451%);fill-opacity:1;" d="M 61.242188 7.058594 C 61.226562 7.121094 61.21875 7.164062 61.21875 7.1875 C 61.21875 7.242188 61.234375 7.285156 61.261719 7.3125 C 61.292969 7.34375 61.332031 7.359375 61.378906 7.359375 C 61.472656 7.359375 61.550781 7.320312 61.609375 7.246094 C 61.679688 7.160156 61.726562 7.117188 61.75 7.117188 C 61.789062 7.117188 61.820312 7.144531 61.84375 7.199219 C 61.867188 7.253906 61.875 7.3125 61.875 7.382812 C 61.882812 7.59375 61.804688 7.808594 61.632812 8.023438 C 61.472656 8.242188 61.253906 8.421875 60.972656 8.5625 C 60.695312 8.699219 60.394531 8.769531 60.070312 8.769531 C 59.6875 8.769531 59.351562 8.695312 59.066406 8.550781 C 58.78125 8.402344 58.582031 8.207031 58.476562 7.964844 C 58.265625 8.238281 58.027344 8.441406 57.757812 8.570312 C 57.488281 8.703125 57.203125 8.769531 56.902344 8.769531 C 56.546875 8.769531 56.214844 8.679688 55.90625 8.503906 C 55.605469 8.324219 55.363281 8.070312 55.175781 7.746094 C 55 7.410156 54.910156 7.035156 54.910156 6.617188 C 54.910156 5.910156 55.042969 5.246094 55.304688 4.625 C 55.574219 3.996094 55.949219 3.492188 56.425781 3.109375 C 56.90625 2.722656 57.449219 2.527344 58.058594 2.527344 C 58.390625 2.527344 58.671875 2.566406 58.902344 2.644531 C 59.140625 2.722656 59.359375 2.839844 59.550781 2.992188 L 59.945312 1.6875 C 59.96875 1.617188 59.980469 1.5625 59.980469 1.515625 C 59.980469 1.429688 59.957031 1.359375 59.910156 1.304688 C 59.871094 1.25 59.816406 1.195312 59.746094 1.140625 C 59.671875 1.078125 59.613281 1.023438 59.574219 0.976562 C 59.542969 0.933594 59.539062 0.871094 59.5625 0.792969 C 59.609375 0.613281 59.851562 0.457031 60.292969 0.324219 C 60.730469 0.195312 61.191406 0.128906 61.667969 0.128906 C 62.117188 0.128906 62.445312 0.214844 62.652344 0.382812 C 62.867188 0.554688 62.976562 0.789062 62.976562 1.082031 C 62.976562 1.253906 62.949219 1.421875 62.894531 1.585938 Z M 59.308594 3.785156 C 59.183594 3.675781 59.050781 3.621094 58.902344 3.621094 C 58.679688 3.621094 58.460938 3.789062 58.242188 4.125 C 58.027344 4.457031 57.855469 4.859375 57.722656 5.335938 C 57.589844 5.808594 57.53125 6.234375 57.539062 6.617188 C 57.539062 7.042969 57.675781 7.257812 57.953125 7.257812 C 58.054688 7.257812 58.140625 7.21875 58.207031 7.140625 C 58.277344 7.054688 58.34375 6.917969 58.40625 6.730469 Z M 59.308594 3.785156 "/>
</g>
</svg>

<?xml version="1.0" encoding="UTF-8"?>
<svg id="surface1" xmlns="http://www.w3.org/2000/svg" xmlns:xlink="http://www.w3.org/1999/xlink" width="63pt" height="11pt" viewBox="0 0 63 11" version="1.1">
<g >
<path style=" stroke:none;fill-rule:nonzero;fill:rgb(6.27451%,6.27451%,6.27451%);fill-opacity:1;" d="M 4.476562 2.574219 C 5.527344 2.574219 6.296875 2.789062 6.792969 3.214844 C 7.292969 3.640625 7.542969 4.199219 7.542969 4.890625 C 7.542969 5.125 7.515625 5.386719 7.453125 5.671875 C 7.304688 6.308594 7.03125 6.867188 6.628906 7.347656 C 6.230469 7.824219 5.734375 8.191406 5.148438 8.457031 C 4.570312 8.710938 3.941406 8.839844 3.261719 8.839844 C 2.191406 8.839844 1.394531 8.625 0.878906 8.199219 C 0.371094 7.765625 0.117188 7.191406 0.117188 6.476562 C 0.117188 6.234375 0.148438 5.96875 0.207031 5.671875 C 0.355469 5.066406 0.632812 4.53125 1.042969 4.066406 C 1.457031 3.589844 1.964844 3.226562 2.558594 2.96875 C 3.160156 2.707031 3.800781 2.574219 4.476562 2.574219 Z M 4.445312 3.609375 C 4.28125 3.609375 4.109375 3.757812 3.921875 4.054688 C 3.746094 4.339844 3.53125 4.886719 3.285156 5.695312 C 3.039062 6.503906 2.914062 7.070312 2.914062 7.394531 C 2.914062 7.566406 2.941406 7.683594 2.996094 7.746094 C 3.050781 7.800781 3.125 7.828125 3.21875 7.828125 C 3.378906 7.84375 3.542969 7.703125 3.714844 7.40625 C 3.890625 7.113281 4.113281 6.539062 4.375 5.683594 C 4.613281 4.929688 4.734375 4.382812 4.734375 4.042969 C 4.734375 3.878906 4.707031 3.765625 4.652344 3.703125 C 4.605469 3.640625 4.535156 3.609375 4.445312 3.609375 Z M 4.445312 3.609375 "/>
<path style=" stroke:none;fill-rule:nonzero;fill:rgb(6.27451%,6.27451%,6.27451%);fill-opacity:1;" d="M 14.460938 7.128906 C 14.445312 7.160156 14.4375 7.207031 14.4375 7.269531 C 14.4375 7.320312 14.449219 7.363281 14.472656 7.394531 C 14.503906 7.425781 14.542969 7.441406 14.589844 7.441406 C 14.679688 7.441406 14.757812 7.402344 14.820312 7.324219 C 14.890625 7.242188 14.933594 7.199219 14.957031 7.199219 C 14.996094 7.199219 15.027344 7.226562 15.050781 7.28125 C 15.074219 7.324219 15.085938 7.382812 15.085938 7.453125 C 15.09375 7.679688 15.019531 7.902344 14.867188 8.117188 C 14.710938 8.328125 14.484375 8.503906 14.183594 8.640625 C 13.890625 8.773438 13.535156 8.839844 13.117188 8.839844 C 12.609375 8.839844 12.203125 8.722656 11.902344 8.492188 C 11.601562 8.25 11.449219 7.933594 11.441406 7.535156 C 11.441406 7.25 11.511719 6.925781 11.648438 6.570312 L 12.285156 4.890625 C 12.324219 4.789062 12.34375 4.710938 12.34375 4.648438 C 12.34375 4.546875 12.308594 4.46875 12.238281 4.414062 C 12.175781 4.351562 12.101562 4.320312 12.007812 4.320312 C 11.859375 4.320312 11.710938 4.390625 11.554688 4.53125 C 11.410156 4.664062 11.289062 4.878906 11.199219 5.183594 L 11.199219 5.160156 L 10.46875 7.523438 C 10.445312 7.617188 10.433594 7.699219 10.433594 7.769531 C 10.433594 7.871094 10.453125 7.949219 10.492188 8.011719 C 10.53125 8.066406 10.585938 8.121094 10.652344 8.175781 C 10.707031 8.230469 10.746094 8.277344 10.769531 8.316406 C 10.792969 8.347656 10.796875 8.390625 10.78125 8.445312 C 10.742188 8.546875 10.664062 8.617188 10.550781 8.664062 C 10.433594 8.710938 10.257812 8.734375 10.019531 8.734375 L 7.378906 8.734375 C 7.179688 8.734375 7.03125 8.703125 6.941406 8.640625 C 6.847656 8.570312 6.816406 8.484375 6.847656 8.375 C 6.878906 8.28125 6.957031 8.199219 7.089844 8.128906 C 7.207031 8.066406 7.300781 7.992188 7.378906 7.910156 C 7.457031 7.824219 7.523438 7.6875 7.574219 7.5 L 9.335938 1.6875 C 9.359375 1.617188 9.371094 1.5625 9.371094 1.515625 C 9.371094 1.429688 9.347656 1.359375 9.300781 1.304688 C 9.261719 1.25 9.207031 1.195312 9.136719 1.140625 C 9.0625 1.078125 9.003906 1.023438 8.964844 0.976562 C 8.933594 0.933594 8.929688 0.871094 8.953125 0.792969 C 9 0.613281 9.242188 0.457031 9.683594 0.324219 C 10.121094 0.195312 10.582031 0.128906 11.058594 0.128906 C 11.507812 0.128906 11.835938 0.214844 12.042969 0.382812 C 12.257812 0.554688 12.367188 0.789062 12.367188 1.082031 C 12.367188 1.253906 12.339844 1.421875 12.285156 1.585938 L 11.660156 3.632812 C 11.960938 3.238281 12.277344 2.960938 12.609375 2.808594 C 12.949219 2.652344 13.316406 2.574219 13.707031 2.574219 C 14.179688 2.574219 14.558594 2.71875 14.84375 3.003906 C 15.136719 3.292969 15.28125 3.664062 15.28125 4.125 C 15.28125 4.363281 15.242188 4.601562 15.167969 4.832031 Z M 14.460938 7.128906 "/>
<path style=" stroke:none;fill-rule:nonzero;fill:rgb(6.27451%,6.27451%,6.27451%);fill-opacity:1;" d="M 26.585938 7.128906 C 26.570312 7.160156 26.5625 7.207031 26.5625 7.269531 C 26.5625 7.320312 26.574219 7.363281 26.597656 7.394531 C 26.628906 7.425781 26.667969 7.441406 26.714844 7.441406 C 26.808594 7.441406 26.882812 7.402344 26.945312 7.324219 C 27.015625 7.242188 27.0625 7.199219 27.085938 7.199219 C 27.125 7.199219 27.15625 7.226562 27.175781 7.28125 C 27.199219 7.324219 27.210938 7.382812 27.210938 7.453125 C 27.21875 7.679688 27.148438 7.902344 26.992188 8.117188 C 26.839844 8.328125 26.609375 8.503906 26.308594 8.640625 C 26.015625 8.773438 25.660156 8.839844 25.246094 8.839844 C 24.734375 8.839844 24.332031 8.722656 24.03125 8.492188 C 23.730469 8.25 23.574219 7.933594 23.566406 7.535156 C 23.566406 7.25 23.636719 6.925781 23.777344 6.570312 L 24.410156 4.890625 C 24.449219 4.789062 24.46875 4.710938 24.46875 4.648438 C 24.46875 4.546875 24.433594 4.46875 24.367188 4.414062 C 24.304688 4.351562 24.226562 4.320312 24.132812 4.320312 C 24.003906 4.320312 23.867188 4.378906 23.730469 4.496094 C 23.589844 4.613281 23.46875 4.792969 23.359375 5.042969 L 22.722656 7.128906 C 22.707031 7.160156 22.699219 7.207031 22.699219 7.269531 C 22.699219 7.320312 22.710938 7.363281 22.734375 7.394531 C 22.765625 7.425781 22.804688 7.441406 22.851562 7.441406 C 22.941406 7.441406 23.019531 7.402344 23.082031 7.324219 C 23.152344 7.242188 23.195312 7.199219 23.21875 7.199219 C 23.257812 7.199219 23.289062 7.226562 23.3125 7.28125 C 23.335938 7.324219 23.347656 7.382812 23.347656 7.453125 C 23.355469 7.679688 23.28125 7.902344 23.128906 8.117188 C 22.972656 8.328125 22.746094 8.503906 22.445312 8.640625 C 22.152344 8.773438 21.796875 8.839844 21.378906 8.839844 C 20.871094 8.839844 20.464844 8.722656 20.164062 8.492188 C 19.863281 8.25 19.710938 7.933594 19.703125 7.535156 C 19.703125 7.25 19.773438 6.925781 19.910156 6.570312 L 20.546875 4.890625 C 20.585938 4.789062 20.605469 4.710938 20.605469 4.648438 C 20.605469 4.546875 20.570312 4.46875 20.5 4.414062 C 20.4375 4.351562 20.363281 4.320312 20.269531 4.320312 C 20.136719 4.320312 20.003906 4.378906 19.863281 4.496094 C 19.726562 4.605469 19.609375 4.78125 19.515625 5.03125 L 18.753906 7.523438 C 18.722656 7.609375 18.707031 7.691406 18.707031 7.769531 C 18.707031 7.863281 18.726562 7.9375 18.765625 8 C 18.804688 8.054688 18.859375 8.113281 18.925781 8.175781 C 18.980469 8.222656 19.019531 8.265625 19.042969 8.304688 C 19.066406 8.34375 19.070312 8.390625 19.054688 8.445312 C 19.023438 8.546875 18.949219 8.617188 18.835938 8.664062 C 18.71875 8.710938 18.539062 8.734375 18.289062 8.734375 L 15.652344 8.734375 C 15.453125 8.734375 15.308594 8.703125 15.222656 8.640625 C 15.132812 8.570312 15.097656 8.484375 15.121094 8.375 C 15.152344 8.28125 15.230469 8.199219 15.363281 8.128906 C 15.480469 8.066406 15.574219 7.992188 15.652344 7.910156 C 15.730469 7.824219 15.796875 7.6875 15.847656 7.5 L 16.878906 4.132812 C 16.894531 4.097656 16.902344 4.042969 16.902344 3.972656 C 16.902344 3.886719 16.882812 3.820312 16.84375 3.773438 C 16.8125 3.726562 16.757812 3.667969 16.683594 3.597656 C 16.605469 3.535156 16.550781 3.484375 16.519531 3.4375 C 16.488281 3.390625 16.484375 3.328125 16.507812 3.25 C 16.554688 3.070312 16.796875 2.914062 17.238281 2.785156 C 17.675781 2.644531 18.136719 2.574219 18.613281 2.574219 C 18.992188 2.574219 19.289062 2.679688 19.503906 2.886719 C 19.730469 3.097656 19.835938 3.386719 19.828125 3.75 C 20.144531 3.308594 20.476562 3 20.824219 2.832031 C 21.179688 2.660156 21.5625 2.574219 21.96875 2.574219 C 22.417969 2.574219 22.78125 2.707031 23.058594 2.96875 C 23.34375 3.226562 23.5 3.5625 23.53125 3.984375 C 23.863281 3.457031 24.21875 3.089844 24.597656 2.886719 C 24.976562 2.679688 25.386719 2.574219 25.835938 2.574219 C 26.304688 2.574219 26.683594 2.71875 26.96875 3.003906 C 27.261719 3.292969 27.410156 3.664062 27.410156 4.125 C 27.410156 4.363281 27.371094 4.601562 27.292969 4.832031 Z M 26.585938 7.128906 "/>
<path style=" stroke:none;fill-rule:nonzero;fill:rgb(6.27451%,6.27451%,6.27451%);fill-opacity:1;" d="M 33.726562 2.574219 C 34.066406 2.574219 34.335938 2.714844 34.539062 2.992188 C 34.746094 3.265625 34.851562 3.636719 34.851562 4.113281 C 34.851562 4.523438 34.777344 4.964844 34.628906 5.4375 C 34.34375 6.394531 33.886719 7.296875 33.253906 8.140625 C 32.628906 8.988281 31.90625 9.667969 31.089844 10.179688 C 30.28125 10.691406 29.46875 10.949219 28.660156 10.949219 C 28.257812 10.949219 27.910156 10.878906 27.617188 10.738281 C 27.332031 10.597656 27.117188 10.414062 26.96875 10.179688 C 26.816406 9.945312 26.738281 9.699219 26.738281 9.433594 C 26.738281 9.316406 26.757812 9.191406 26.796875 9.050781 C 26.867188 8.832031 26.980469 8.664062 27.144531 8.550781 C 27.304688 8.433594 27.5 8.375 27.722656 8.375 C 28.078125 8.375 28.367188 8.496094 28.589844 8.734375 C 28.820312 8.984375 28.96875 9.320312 29.03125 9.75 C 29.523438 9.726562 29.980469 9.511719 30.394531 9.109375 C 30.003906 9.039062 29.707031 8.90625 29.515625 8.710938 C 29.332031 8.511719 29.203125 8.199219 29.132812 7.78125 L 28.671875 4.925781 C 28.648438 4.777344 28.613281 4.679688 28.566406 4.625 C 28.527344 4.5625 28.472656 4.53125 28.40625 4.53125 C 28.351562 4.53125 28.285156 4.558594 28.207031 4.613281 C 28.140625 4.667969 28.089844 4.695312 28.058594 4.695312 C 27.996094 4.695312 27.964844 4.628906 27.964844 4.496094 C 27.964844 4.386719 27.984375 4.269531 28.023438 4.144531 C 28.164062 3.703125 28.421875 3.332031 28.796875 3.027344 C 29.175781 2.71875 29.617188 2.5625 30.117188 2.5625 C 30.613281 2.5625 30.972656 2.710938 31.207031 3.003906 C 31.445312 3.300781 31.597656 3.753906 31.667969 4.367188 L 32.015625 6.929688 C 32.039062 7.125 32.109375 7.222656 32.222656 7.222656 C 32.363281 7.222656 32.523438 7.097656 32.710938 6.847656 C 32.894531 6.59375 33.078125 6.230469 33.253906 5.765625 C 33.023438 5.554688 32.84375 5.316406 32.722656 5.042969 C 32.597656 4.769531 32.535156 4.480469 32.535156 4.167969 C 32.535156 3.929688 32.566406 3.710938 32.628906 3.515625 C 32.722656 3.207031 32.863281 2.972656 33.058594 2.820312 C 33.257812 2.65625 33.480469 2.574219 33.726562 2.574219 Z M 33.726562 2.574219 "/>
<path style=" stroke:none;fill-rule:nonzero;fill:rgb(6.27451%,6.27451%,6.27451%);fill-opacity:1;" d="M 39.492188 0.128906 C 40.316406 0.128906 40.933594 0.257812 41.34375 0.511719 C 41.761719 0.761719 41.96875 1.066406 41.96875 1.433594 C 41.96875 1.726562 41.84375 1.957031 41.597656 2.121094 C 41.359375 2.273438 41.042969 2.351562 40.648438 2.351562 C 40.285156 2.351562 40.003906 2.261719 39.804688 2.085938 C 39.605469 1.90625 39.503906 1.683594 39.503906 1.421875 C 39.503906 1.257812 39.554688 1.085938 39.652344 0.910156 C 39.421875 0.910156 39.230469 0.964844 39.074219 1.082031 C 38.921875 1.191406 38.800781 1.382812 38.714844 1.652344 C 38.671875 1.824219 38.648438 1.984375 38.648438 2.132812 C 38.648438 2.316406 38.679688 2.464844 38.738281 2.574219 C 38.808594 2.675781 38.90625 2.726562 39.027344 2.726562 L 39.710938 2.726562 C 40.113281 2.726562 40.3125 2.851562 40.3125 3.097656 C 40.3125 3.128906 40.304688 3.175781 40.289062 3.238281 C 40.246094 3.410156 40.148438 3.535156 40 3.621094 C 39.863281 3.707031 39.648438 3.75 39.363281 3.75 L 39.015625 3.75 L 37.871094 7.523438 C 37.847656 7.617188 37.835938 7.699219 37.835938 7.769531 C 37.835938 7.871094 37.855469 7.949219 37.894531 8.011719 C 37.933594 8.066406 37.988281 8.121094 38.058594 8.175781 C 38.109375 8.230469 38.148438 8.277344 38.171875 8.316406 C 38.195312 8.347656 38.199219 8.390625 38.183594 8.445312 C 38.144531 8.546875 38.070312 8.617188 37.953125 8.664062 C 37.835938 8.710938 37.660156 8.734375 37.421875 8.734375 L 34.78125 8.734375 C 34.582031 8.734375 34.433594 8.703125 34.34375 8.640625 C 34.25 8.570312 34.21875 8.484375 34.25 8.375 C 34.28125 8.28125 34.363281 8.199219 34.492188 8.128906 C 34.609375 8.066406 34.707031 7.992188 34.78125 7.910156 C 34.859375 7.824219 34.925781 7.6875 34.980469 7.5 L 35.882812 4.519531 C 35.921875 4.402344 35.941406 4.28125 35.941406 4.15625 C 35.941406 4.003906 35.90625 3.882812 35.835938 3.796875 C 35.773438 3.703125 35.675781 3.601562 35.546875 3.492188 C 35.460938 3.425781 35.394531 3.367188 35.347656 3.320312 C 35.3125 3.265625 35.292969 3.203125 35.292969 3.132812 C 35.285156 2.984375 35.335938 2.878906 35.441406 2.820312 C 35.558594 2.757812 35.773438 2.726562 36.089844 2.726562 L 36.378906 2.726562 C 36.324219 2.53125 36.296875 2.335938 36.296875 2.144531 C 36.296875 1.949219 36.332031 1.746094 36.402344 1.539062 C 36.550781 1.140625 36.863281 0.808594 37.339844 0.535156 C 37.824219 0.265625 38.542969 0.128906 39.492188 0.128906 Z M 39.492188 0.128906 "/>
<path style=" stroke:none;fill-rule:nonzero;fill:rgb(6.27451%,6.27451%,6.27451%);fill-opacity:1;" d="M 44.0625 2.574219 C 45.113281 2.574219 45.882812 2.789062 46.378906 3.214844 C 46.878906 3.640625 47.128906 4.199219 47.128906 4.890625 C 47.128906 5.125 47.097656 5.386719 47.035156 5.671875 C 46.890625 6.308594 46.617188 6.867188 46.214844 7.347656 C 45.8125 7.824219 45.320312 8.191406 44.734375 8.457031 C 44.15625 8.710938 43.527344 8.839844 42.847656 8.839844 C 41.777344 8.839844 40.980469 8.625 40.464844 8.199219 C 39.953125 7.765625 39.699219 7.191406 39.699219 6.476562 C 39.699219 6.234375 39.730469 5.96875 39.792969 5.671875 C 39.9375 5.066406 40.21875 4.53125 40.625 4.066406 C 41.042969 3.589844 41.546875 3.226562 42.140625 2.96875 C 42.742188 2.707031 43.382812 2.574219 44.0625 2.574219 Z M 44.027344 3.609375 C 43.867188 3.609375 43.691406 3.757812 43.507812 4.054688 C 43.328125 4.339844 43.117188 4.886719 42.871094 5.695312 C 42.625 6.503906 42.5 7.070312 42.5 7.394531 C 42.5 7.566406 42.527344 7.683594 42.582031 7.746094 C 42.636719 7.800781 42.707031 7.828125 42.800781 7.828125 C 42.964844 7.84375 43.128906 7.703125 43.300781 7.40625 C 43.476562 7.113281 43.695312 6.539062 43.957031 5.683594 C 44.199219 4.929688 44.316406 4.382812 44.316406 4.042969 C 44.316406 3.878906 44.289062 3.765625 44.234375 3.703125 C 44.191406 3.640625 44.121094 3.609375 44.027344 3.609375 Z M 44.027344 3.609375 "/>
<path style=" stroke:none;fill-rule:nonzero;fill:rgb(6.27451%,6.27451%,6.27451%);fill-opacity:1;" d="M 51.65625 2.574219 C 52.707031 2.574219 53.476562 2.789062 53.972656 3.214844 C 54.472656 3.640625 54.722656 4.199219 54.722656 4.890625 C 54.722656 5.125 54.691406 5.386719 54.628906 5.671875 C 54.484375 6.308594 54.210938 6.867188 53.808594 7.347656 C 53.40625 7.824219 52.914062 8.191406 52.328125 8.457031 C 51.75 8.710938 51.121094 8.839844 50.441406 8.839844 C 49.371094 8.839844 48.574219 8.625 48.058594 8.199219 C 47.546875 7.765625 47.292969 7.191406 47.292969 6.476562 C 47.292969 6.234375 47.324219 5.96875 47.386719 5.671875 C 47.53125 5.066406 47.8125 4.53125 48.21875 4.066406 C 48.636719 3.589844 49.140625 3.226562 49.734375 2.96875 C 50.335938 2.707031 50.976562 2.574219 51.65625 2.574219 Z M 51.621094 3.609375 C 51.460938 3.609375 51.285156 3.757812 51.101562 4.054688 C 50.921875 4.339844 50.710938 4.886719 50.464844 5.695312 C 50.21875 6.503906 50.09375 7.070312 50.09375 7.394531 C 50.09375 7.566406 50.121094 7.683594 50.175781 7.746094 C 50.230469 7.800781 50.300781 7.828125 50.394531 7.828125 C 50.558594 7.84375 50.722656 7.703125 50.894531 7.40625 C 51.070312 7.113281 51.289062 6.539062 51.550781 5.683594 C 51.792969 4.929688 51.910156 4.382812 51.910156 4.042969 C 51.910156 3.878906 51.882812 3.765625 51.828125 3.703125 C 51.785156 3.640625 51.714844 3.609375 51.621094 3.609375 Z M 51.621094 3.609375 "/>
<path style=" stroke:none;fill-rule:nonzero;fill:rgb(6.27451%,6.27451%,6.27451%);fill-opacity:1;" d="M 61.242188 7.058594 C 61.226562 7.121094 61.21875 7.164062 61.21875 7.1875 C 61.21875 7.242188 61.234375 7.285156 61.261719 7.3125 C 61.292969 7.34375 61.332031 7.359375 61.378906 7.359375 C 61.472656 7.359375 61.550781 7.320312 61.609375 7.246094 C 61.679688 7.160156 61.726562 7.117188 61.75 7.117188 C 61.789062 7.117188 61.820312 7.144531 61.84375 7.199219 C 61.867188 7.253906 61.875 7.3125 61.875 7.382812 C 61.882812 7.59375 61.804688 7.808594 61.632812 8.023438 C 61.472656 8.242188 61.253906 8.421875 60.972656 8.5625 C 60.695312 8.699219 60.394531 8.769531 60.070312 8.769531 C 59.6875 8.769531 59.351562 8.695312 59.066406 8.550781 C 58.78125 8.402344 58.582031 8.207031 58.476562 7.964844 C 58.265625 8.238281 58.027344 8.441406 57.757812 8.570312 C 57.488281 8.703125 57.203125 8.769531 56.902344 8.769531 C 56.546875 8.769531 56.214844 8.679688 55.90625 8.503906 C 55.605469 8.324219 55.363281 8.070312 55.175781 7.746094 C 55 7.410156 54.910156 7.035156 54.910156 6.617188 C 54.910156 5.910156 55.042969 5.246094 55.304688 4.625 C 55.574219 3.996094 55.949219 3.492188 56.425781 3.109375 C 56.90625 2.722656 57.449219 2.527344 58.058594 2.527344 C 58.390625 2.527344 58.671875 2.566406 58.902344 2.644531 C 59.140625 2.722656 59.359375 2.839844 59.550781 2.992188 L 59.945312 1.6875 C 59.96875 1.617188 59.980469 1.5625 59.980469 1.515625 C 59.980469 1.429688 59.957031 1.359375 59.910156 1.304688 C 59.871094 1.25 59.816406 1.195312 59.746094 1.140625 C 59.671875 1.078125 59.613281 1.023438 59.574219 0.976562 C 59.542969 0.933594 59.539062 0.871094 59.5625 0.792969 C 59.609375 0.613281 59.851562 0.457031 60.292969 0.324219 C 60.730469 0.195312 61.191406 0.128906 61.667969 0.128906 C 62.117188 0.128906 62.445312 0.214844 62.652344 0.382812 C 62.867188 0.554688 62.976562 0.789062 62.976562 1.082031 C 62.976562 1.253906 62.949219 1.421875 62.894531 1.585938 Z M 59.308594 3.785156 C 59.183594 3.675781 59.050781 3.621094 58.902344 3.621094 C 58.679688 3.621094 58.460938 3.789062 58.242188 4.125 C 58.027344 4.457031 57.855469 4.859375 57.722656 5.335938 C 57.589844 5.808594 57.53125 6.234375 57.539062 6.617188 C 57.539062 7.042969 57.675781 7.257812 57.953125 7.257812 C 58.054688 7.257812 58.140625 7.21875 58.207031 7.140625 C 58.277344 7.054688 58.34375 6.917969 58.40625 6.730469 Z M 59.308594 3.785156 "/>
</g>
</svg>